# xmcd CD database file
#
# Track frame offsets:
#	150
#	17612
#	34527
#	51750
#	69917
#	91230
#	110125
#	129755
#	147442
#	169287
#	190872
#	212027
#	229212
#	250442
#	267892
#	292022
#
# Disc length: 4435 seconds
#
# Revision: 4
# Processed by: cddbd v1.5.1PL0 Copyright (c) Steve Scherf et al.
# Submitted via: CDex 1.51
#
DISCID=e8115110
DTITLE=IAM - L'Ecole du Micro d'Argent
DYEAR=1997
DGENRE=Rap
TTITLE0=L'École du micro d'argent
TTITLE1=Dangereux
TTITLE2=Nés sous la même étoile
TTITLE3=La saga
TTITLE4=Petit frère
TTITLE5=Elle donne son corps avant son nom
TTITLE6=L'empire du côté obscur
TTITLE7=Regarde
TTITLE8=L'enfer
TTITLE9=Quand tu allais, on revenait
TTITLE10=Chez le mac
TTITLE11=Un bon son brut pour les truands
TTITLE12=Bouger la tête
TTITLE13=Un cri court dans la nuit
TTITLE14=Libère mon imagination
TTITLE15=Demain, c'est loin
EXTD=YEAR: 1997
EXTT0=
EXTT1=
EXTT2=
EXTT3=
EXTT4=
EXTT5=
EXTT6=
EXTT7=
EXTT8=
EXTT9=
EXTT10=
EXTT11=
EXTT12=
EXTT13=
EXTT14=
EXTT15=
PLAYORDER=
